<svg width="365" height="410" viewBox="0 0 365 410" fill="none" xmlns="http://www.w3.org/2000/svg">
<path d="M0.541225 239.145C0.361225 211.995 0.171232 185.385 0.00123173 158.775C-0.0487683 151.605 1.40122 149.305 8.43122 149.075C19.5412 148.705 30.7112 148.745 41.7912 149.485C146.231 156.405 232.891 201.245 306.171 274.195C323.071 291.015 336.161 310.905 349.361 330.605C354.121 337.715 358.291 345.305 361.981 353.025C365.441 360.285 363.791 363.795 356.091 367.585C346.271 372.425 336.301 376.965 326.411 381.685C308.261 390.335 290.121 399.025 271.971 407.685C265.471 410.785 261.291 410.065 256.881 404.465C248.891 394.315 241.981 383.185 233.171 373.825C181.581 318.965 119.921 280.735 46.0712 263.825C34.0112 261.065 21.1412 261.605 8.62123 261.105C2.84123 260.875 0.621226 259.495 0.511226 253.735C0.431226 249.035 0.531225 244.355 0.541225 239.145Z" fill="#19B756"/>
<path d="M251.881 14.2554C252.731 12.2154 253.471 10.5854 254.091 8.89543C257.321 0.0554285 262.261 -2.07456 271.171 1.96544C293.401 12.0354 315.571 22.2354 337.771 32.3754C344.631 35.5054 351.491 38.6254 358.361 41.7154C364.231 44.3554 365.111 46.1554 363.591 52.7054C355.251 88.4854 335.461 117.635 310.521 143.695C296.021 158.845 279.871 172.025 260.431 180.395C253.931 183.195 246.801 184.605 239.861 186.265C238.161 186.675 235.951 185.895 234.241 185.105C199.701 169.235 165.211 153.275 130.691 137.375C127.061 135.705 124.241 132.835 125.251 129.125C125.931 126.635 129.001 123.995 131.621 122.945C184.991 101.585 225.041 65.5354 251.881 14.2554Z" fill="#19B756"/>
</svg>
