<svg width="1333" height="410" viewBox="0 0 1333 410" fill="none" xmlns="http://www.w3.org/2000/svg">
<path d="M0.541225 239.145C0.361225 211.995 0.171232 185.385 0.00123173 158.775C-0.0487683 151.605 1.40122 149.305 8.43122 149.075C19.5412 148.705 30.7112 148.745 41.7912 149.485C146.231 156.405 232.891 201.245 306.171 274.195C323.071 291.015 336.161 310.905 349.361 330.605C354.121 337.715 358.291 345.305 361.981 353.025C365.441 360.285 363.791 363.795 356.091 367.585C346.271 372.425 336.301 376.965 326.411 381.685C308.261 390.335 290.121 399.025 271.971 407.685C265.471 410.785 261.291 410.065 256.881 404.465C248.891 394.315 241.981 383.185 233.171 373.825C181.581 318.965 119.921 280.735 46.0712 263.825C34.0112 261.065 21.1412 261.605 8.62123 261.105C2.84123 260.875 0.621226 259.495 0.511226 253.735C0.431226 249.035 0.531225 244.355 0.541225 239.145Z" fill="#19B756"/>
<path d="M251.881 14.2554C252.731 12.2154 253.471 10.5854 254.091 8.89543C257.321 0.0554285 262.261 -2.07456 271.171 1.96544C293.401 12.0354 315.571 22.2354 337.771 32.3754C344.631 35.5054 351.491 38.6254 358.361 41.7154C364.231 44.3554 365.111 46.1554 363.591 52.7054C355.251 88.4854 335.461 117.635 310.521 143.695C296.021 158.845 279.871 172.025 260.431 180.395C253.931 183.195 246.801 184.605 239.861 186.265C238.161 186.675 235.951 185.895 234.241 185.105C199.701 169.235 165.211 153.275 130.691 137.375C127.061 135.705 124.241 132.835 125.251 129.125C125.931 126.635 129.001 123.995 131.621 122.945C184.991 101.585 225.041 65.5354 251.881 14.2554Z" fill="#19B756"/>
<path d="M501.281 282.815C491.781 282.815 483.231 280.955 475.611 277.245C467.991 273.535 461.951 268.215 457.481 261.305C453.011 254.395 450.781 246.095 450.781 236.405C450.781 228.135 452.851 220.795 456.991 214.405C461.131 208.015 467.331 202.745 475.611 198.605C483.881 194.465 494.301 191.675 506.851 190.215C519.401 188.755 534.101 188.785 550.931 190.285L551.351 219.065C542.421 217.465 534.351 216.645 527.161 216.595C519.971 216.545 513.851 217.155 508.821 218.425C503.791 219.695 499.911 221.645 497.181 224.275C494.451 226.905 493.091 230.155 493.091 234.005C493.091 238.995 494.991 242.795 498.801 245.435C502.611 248.065 507.711 249.385 514.101 249.385C519.651 249.385 524.651 248.395 529.121 246.425C533.591 244.445 537.141 241.555 539.771 237.755C542.401 233.945 543.721 229.265 543.721 223.715V190.985C543.721 185.725 542.661 181.115 540.551 177.165C538.431 173.215 535.051 170.135 530.391 167.925C525.741 165.715 519.551 164.605 511.841 164.605C504.321 164.605 496.911 165.735 489.621 167.995C482.331 170.255 475.771 173.545 469.941 177.865L458.091 146.125C467.401 140.295 477.371 135.995 487.991 133.215C498.611 130.445 509.051 129.055 519.301 129.055C532.841 129.055 544.761 131.225 555.061 135.545C565.361 139.875 573.421 146.545 579.251 155.575C585.081 164.605 588.001 176.165 588.001 190.275V278.575H547.941V263.345C543.331 269.555 536.981 274.345 528.901 277.735C520.841 281.125 511.631 282.815 501.281 282.815Z" fill="#19B756"/>
<path d="M608.621 171.385V134.705H640.781V171.385H608.621ZM687.901 282.815C671.911 282.815 659.361 278.325 650.241 269.345C641.121 260.365 636.561 246.945 636.561 229.075V93.5154H682.831V134.705H716.541V171.385H682.821V221.035C682.821 228.745 684.511 234.155 687.901 237.255C691.291 240.355 695.661 241.915 701.021 241.915C703.931 241.915 706.831 241.565 709.701 240.855C712.571 240.145 715.221 239.095 717.671 237.685L723.591 273.935C719.171 276.385 713.861 278.475 707.651 280.215C701.441 281.945 694.861 282.815 687.901 282.815Z" fill="#19B756"/>
<path d="M791.571 282.815C782.071 282.815 773.521 280.955 765.901 277.245C758.281 273.535 752.241 268.215 747.771 261.305C743.301 254.395 741.071 246.095 741.071 236.405C741.071 228.135 743.141 220.795 747.281 214.405C751.421 208.015 757.621 202.745 765.901 198.605C774.171 194.465 784.591 191.675 797.141 190.215C809.691 188.755 824.391 188.785 841.221 190.285L841.641 219.065C832.711 217.465 824.641 216.645 817.451 216.595C810.261 216.545 804.141 217.155 799.111 218.425C794.081 219.695 790.201 221.645 787.471 224.275C784.741 226.905 783.381 230.155 783.381 234.005C783.381 238.995 785.281 242.795 789.091 245.435C792.901 248.065 798.001 249.385 804.391 249.385C809.941 249.385 814.941 248.395 819.411 246.425C823.881 244.445 827.431 241.555 830.061 237.755C832.691 233.945 834.011 229.265 834.011 223.715V190.985C834.011 185.725 832.951 181.115 830.841 177.165C828.721 173.215 825.341 170.135 820.681 167.925C816.031 165.715 809.841 164.605 802.131 164.605C794.611 164.605 787.201 165.735 779.911 167.995C772.621 170.255 766.061 173.545 760.231 177.865L748.381 146.125C757.691 140.295 767.661 135.995 778.281 133.215C788.901 130.445 799.341 129.055 809.591 129.055C823.131 129.055 835.051 131.225 845.351 135.545C855.651 139.875 863.711 146.545 869.541 155.575C875.371 164.605 878.291 176.165 878.291 190.275V278.575H838.231V263.345C833.621 269.555 827.271 274.345 819.191 277.735C811.131 281.125 801.921 282.815 791.571 282.815Z" fill="#19B756"/>
<path d="M914.861 278.585V75.4653H961.131V278.585H914.861Z" fill="#19B756"/>
<path d="M999.631 278.585V75.4653H1045.9V166.875L1036.31 155.445C1042.52 147.825 1049.9 141.765 1058.46 137.245C1067.02 132.735 1076.47 130.475 1086.81 130.475C1100.26 130.475 1111.47 133.155 1120.45 138.515C1129.43 143.875 1136.13 150.885 1140.55 159.535C1144.97 168.185 1147.18 177.495 1147.18 187.465V278.585H1100.91V200.585C1100.91 192.215 1098.51 185.445 1093.72 180.275C1088.92 175.105 1082.2 172.475 1073.55 172.375C1067.72 172.285 1062.76 173.435 1058.67 175.835C1054.58 178.235 1051.43 181.685 1049.22 186.205C1047.01 190.715 1045.9 195.985 1045.9 202.005V278.595H999.631V278.585Z" fill="#19B756"/>
<path d="M1252.97 282.815C1237.26 282.815 1223.39 279.355 1211.36 272.445C1199.32 265.535 1189.89 256.295 1183.08 244.725C1176.26 233.155 1172.85 220.465 1172.85 206.645C1172.85 196.585 1174.8 186.965 1178.7 177.795C1182.6 168.625 1188.13 160.495 1195.27 153.395C1202.42 146.295 1210.88 140.695 1220.66 136.605C1230.44 132.515 1241.21 130.465 1252.96 130.465C1268.66 130.465 1282.53 133.925 1294.57 140.835C1306.61 147.745 1316.01 156.985 1322.78 168.555C1329.55 180.125 1332.94 192.815 1332.94 206.645C1332.94 216.705 1331.01 226.325 1327.16 235.495C1323.3 244.665 1317.8 252.775 1310.66 259.825C1303.51 266.875 1295.05 272.475 1285.27 276.615C1275.49 280.745 1264.72 282.815 1252.97 282.815ZM1252.97 243.035C1259.55 243.035 1265.48 241.555 1270.74 238.595C1276.01 235.635 1280.14 231.425 1283.15 225.975C1286.16 220.525 1287.66 214.075 1287.66 206.645C1287.66 199.215 1286.18 192.775 1283.22 187.315C1280.26 181.865 1276.14 177.655 1270.88 174.695C1265.61 171.735 1259.64 170.255 1252.97 170.255C1246.29 170.255 1240.32 171.735 1235.05 174.695C1229.78 177.655 1225.65 181.865 1222.64 187.315C1219.63 192.775 1218.13 199.215 1218.13 206.645C1218.13 214.075 1219.66 220.515 1222.71 225.975C1225.77 231.425 1229.93 235.635 1235.19 238.595C1240.46 241.555 1246.39 243.035 1252.97 243.035Z" fill="#19B756"/>
</svg>
